<svg width="57" height="57" viewBox="0 0 57 57" fill="none" xmlns="http://www.w3.org/2000/svg">
<g clip-path="url(#clip0_0_21)">
<g clip-path="url(#clip1_0_21)">
<g clip-path="url(#clip2_0_21)">
<path d="M28.0662 1.99317C13.5154 1.99317 1.719 13.7896 1.719 28.3404C1.719 42.8913 13.5154 54.6877 28.0662 54.6877C42.6171 54.6877 54.4134 42.8913 54.4134 28.3404C54.4134 13.7896 42.6179 1.99317 28.0662 1.99317ZM28.0662 0.339966C43.5058 0.339966 56.0666 12.9008 56.0666 28.3404C56.0666 43.7801 43.5058 56.3409 28.0662 56.3409C12.6266 56.3409 0.0657954 43.7801 0.0657959 28.3404C0.0657964 12.9008 12.6275 0.339965 28.0662 0.339966Z" fill="#2A3D4C"/>
<path d="M28.0088 53.3721H28.1569C33.4295 53.3518 38.4676 51.7101 42.7307 48.6214C42.7457 48.6126 42.7598 48.6038 42.7739 48.5932L42.8823 48.5139C47.0484 45.442 50.1106 41.2609 51.7611 36.4036C51.7717 36.3824 51.7814 36.3604 51.7885 36.3374L51.8731 36.0765C52.6869 33.5645 53.0978 30.9652 53.0978 28.3403C53.0978 27.5821 53.0599 26.7885 52.9841 25.9835L52.9329 25.4316C52.9285 25.3875 52.9188 25.3452 52.9029 25.3055C52.5379 22.2804 51.6359 19.3875 50.2225 16.7027C50.2137 16.67 50.2005 16.6383 50.1838 16.6066L49.9827 16.2433C48.4291 13.435 46.3801 10.9804 43.8928 8.94892L43.8875 8.94451L43.8839 8.94099C42.4661 7.78506 40.9135 6.7808 39.2664 5.95552C39.247 5.94141 39.2259 5.92907 39.2038 5.91849L39.0381 5.83737C36.7756 4.73435 34.3818 3.98666 31.9077 3.60576C31.8937 3.60223 31.8786 3.59959 31.8636 3.59694L31.7596 3.58107L31.7269 3.57755C30.9255 3.4594 30.1302 3.38004 29.3631 3.34125H29.3587C28.9541 3.32097 28.5554 3.31127 28.1613 3.30951C28.149 3.30863 28.1366 3.30774 28.1243 3.30774H28.0096C27.9973 3.30774 27.985 3.30774 27.9726 3.30951C27.5785 3.31127 27.18 3.32097 26.7858 3.34037C26.0117 3.38004 25.2253 3.45763 24.4317 3.57314L24.4026 3.57666L24.2694 3.59694C24.2544 3.59959 24.2395 3.60223 24.2254 3.60576C21.7513 3.98666 19.3583 4.73523 17.1117 5.82943L16.9292 5.91848C16.9072 5.92907 16.886 5.94229 16.8657 5.95552C15.2152 6.78256 13.6634 7.78683 12.25 8.94098C9.75567 10.9786 7.70481 13.4342 6.15036 16.2433L5.94933 16.6066C5.9317 16.6383 5.91847 16.6709 5.90965 16.7035C4.49275 19.3936 3.59164 22.2874 3.22838 25.3108C3.21427 25.3487 3.20369 25.3893 3.20016 25.4316L3.14902 25.9835C3.0732 26.7885 3.03528 27.5821 3.03528 28.3403C3.03528 30.9678 3.44616 33.5671 4.25557 36.0641L4.34374 36.3366C4.35168 36.3604 4.36137 36.3842 4.37283 36.4062C6.02163 41.2556 9.07763 45.4305 13.2128 48.4848L13.2331 48.5006L13.3592 48.5932C13.3733 48.6038 13.3874 48.6126 13.4024 48.6214C17.6663 51.7101 22.7035 53.3518 27.9761 53.3703H28.0096L28.0088 53.3721ZM42.0932 47.8138C38.129 50.6758 33.471 52.2347 28.581 52.3369V44.9253L28.8605 44.92C28.9531 44.9191 29.0457 44.9174 29.1374 44.9147C29.3172 44.9085 29.4971 44.898 29.6761 44.8883L29.9318 44.875C30.0129 44.8715 30.0931 44.8671 30.1742 44.8618C30.3885 44.8468 30.6019 44.8274 30.8161 44.808L31.2023 44.7745C31.4677 44.7472 31.7305 44.7137 31.9923 44.6793L32.2216 44.652C32.8943 44.5594 33.5706 44.4421 34.2327 44.3028L34.2962 44.2887C34.6269 44.2173 34.9231 44.1512 35.2176 44.078L35.5994 43.9775C35.7969 43.9263 35.9944 43.8752 36.1901 43.8196C36.2713 43.7967 36.3515 43.772 36.4326 43.7465L36.7121 43.6618C36.8576 43.6186 37.004 43.5745 37.1486 43.5278C37.2403 43.4978 37.3311 43.4661 37.4219 43.4343L37.704 43.3373C37.8336 43.2933 37.9633 43.2492 38.092 43.2024C38.1934 43.1654 38.2939 43.1266 38.3935 43.0869L38.6827 42.9758C38.7956 42.9326 38.9085 42.8903 39.0195 42.8445C39.1306 42.7995 39.24 42.7519 39.3493 42.7043L39.627 42.5852C39.7293 42.542 39.8307 42.4988 39.9312 42.4539C40.0459 42.4027 40.1596 42.3481 40.2733 42.2934L40.5317 42.1708C40.6304 42.125 40.7283 42.0783 40.8262 42.0306C40.9399 41.9742 41.0537 41.9151 41.1656 41.8552L41.4169 41.7247C41.5121 41.6753 41.6082 41.6268 41.7026 41.5748C41.8172 41.5122 41.931 41.4478 42.0438 41.3826L42.2907 41.2424C42.3806 41.1921 42.4706 41.141 42.5596 41.0881L42.6301 41.0458L42.6187 41.4752C42.6143 41.6621 42.6099 41.849 42.6011 42.0395C42.5896 42.3101 42.572 42.5852 42.5534 42.8612L42.5182 43.4537C42.5085 43.6283 42.4988 43.8038 42.4855 43.9819C42.452 44.4307 42.408 44.8865 42.3648 45.3432L42.3357 45.673C42.3268 45.7735 42.3189 45.8749 42.3083 45.9781C42.2457 46.5838 42.1743 47.1966 42.0949 47.8138H42.0932ZM27.5503 44.9253V52.3369C22.6612 52.2347 18.0031 50.6758 14.0381 47.8138C13.9587 47.1957 13.8873 46.5829 13.8247 45.9772C13.8141 45.8758 13.8062 45.7753 13.7974 45.6747L13.7762 45.4279C13.7277 44.9244 13.6819 44.4492 13.6475 43.9819C13.6343 43.8046 13.6246 43.6301 13.6149 43.4564L13.5787 42.8533C13.5611 42.58 13.5434 42.3066 13.532 42.0386C13.524 41.8481 13.5196 41.6603 13.5143 41.4734L13.5029 41.0458L13.5734 41.0881C13.6625 41.141 13.7524 41.1913 13.8423 41.2424L14.0875 41.3817C14.2012 41.447 14.3158 41.5122 14.4313 41.5748C14.5274 41.6268 14.6244 41.6771 14.7223 41.7273L14.9612 41.8508C15.0767 41.9116 15.1922 41.9725 15.3086 42.0298C15.4047 42.0774 15.5026 42.1232 15.6005 42.1691L15.8712 42.2969C15.9814 42.3498 16.0916 42.4027 16.2027 42.4521C16.3058 42.4988 16.4099 42.5429 16.5139 42.587L16.7943 42.7078C16.9001 42.7536 17.0068 42.7995 17.1135 42.8436C17.2255 42.8894 17.3392 42.9326 17.4521 42.9758L17.7386 43.086C17.8391 43.1248 17.9396 43.1645 18.041 43.2016C18.1689 43.2483 18.2976 43.2924 18.4272 43.3356L18.7138 43.4334C18.8037 43.4652 18.8937 43.496 18.9845 43.526C19.1317 43.5736 19.2807 43.6186 19.4306 43.6627L19.7022 43.7447C19.7824 43.7694 19.8626 43.7949 19.9438 43.8179C20.1298 43.8708 20.3185 43.9201 20.5063 43.9686L20.9154 44.0771C21.2099 44.1494 21.5062 44.2164 21.8042 44.2799L21.9003 44.3019C22.5624 44.4412 23.2387 44.5585 23.9106 44.6511L24.1416 44.6793C24.4035 44.7137 24.6662 44.7463 24.9298 44.7736L25.2473 44.801C25.5144 44.8257 25.7357 44.8468 25.9588 44.8618C26.0381 44.8671 26.1193 44.8715 26.1995 44.875L26.4561 44.8883C26.6351 44.8988 26.8149 44.9085 26.9948 44.9147C27.0865 44.9182 27.1791 44.9191 27.2708 44.92L27.5503 44.9253ZM50.86 35.8604C49.4202 40.2284 46.7953 44.0365 43.2324 46.9391L43.2711 46.6094C43.295 46.4136 43.3188 46.217 43.3382 46.0239C43.3664 45.7479 43.3893 45.4764 43.4122 45.2039L43.466 44.5894C43.4845 44.3919 43.503 44.1935 43.5171 43.9995C43.5418 43.6583 43.5604 43.3232 43.578 42.9882L43.6009 42.5747C43.615 42.3101 43.63 42.0456 43.6397 41.7847C43.6582 41.3121 43.6741 40.8421 43.6811 40.3801C43.8945 40.2355 44.1026 40.0874 44.3107 39.9383L44.502 39.8052C44.5709 39.7585 44.6404 39.7109 44.7066 39.6624C45.0998 39.3714 45.4878 39.0655 45.8598 38.7525C45.9436 38.6819 46.0238 38.6087 46.1032 38.5364L46.3668 38.301C46.5643 38.1282 46.761 37.9563 46.9488 37.7764C47.044 37.6847 47.1357 37.5912 47.2265 37.4969L47.5104 37.2086C47.6629 37.056 47.8155 36.9035 47.961 36.7457C48.0588 36.6399 48.1514 36.5305 48.244 36.4203L48.5156 36.1056C48.6434 35.9601 48.7704 35.8137 48.8912 35.6647C48.9873 35.5457 49.0772 35.4231 49.1671 35.3014L49.4105 34.977C49.5216 34.8315 49.6327 34.6851 49.7367 34.5361C49.8284 34.4047 49.9131 34.2716 49.9986 34.1376L50.2093 33.8122C50.3072 33.6641 50.4051 33.5151 50.495 33.3634L50.5109 33.337L50.532 33.4604L50.5743 33.7055C50.5885 33.7884 50.6034 33.8704 50.6158 33.9542C50.6475 34.1579 50.6757 34.3642 50.704 34.5714L50.7577 34.9514C50.7957 35.2521 50.83 35.5563 50.8609 35.8613L50.86 35.8604ZM12.451 40.381C12.4589 40.9241 12.4757 41.4787 12.4995 42.0315C12.503 42.1171 12.5083 42.2035 12.5145 42.2908L12.5259 42.4856C12.5506 42.9873 12.5771 43.4916 12.6159 44.0048C12.6265 44.1512 12.6406 44.3002 12.6538 44.4492L12.6961 44.9376C12.7261 45.3 12.757 45.6624 12.794 46.031C12.8116 46.2003 12.8319 46.3722 12.8522 46.5432L12.898 46.9391C9.33598 44.0374 6.71113 40.2284 5.27041 35.8596C5.30128 35.5563 5.33566 35.2521 5.37446 34.9496L5.42824 34.5626C5.45558 34.3589 5.48379 34.1543 5.51553 33.9533C5.52876 33.8695 5.54286 33.7884 5.55697 33.7064L5.59841 33.4631L5.61957 33.3352L5.63368 33.3599C5.7289 33.5186 5.8303 33.6738 5.93258 33.829L6.14595 34.1596C6.22531 34.2848 6.30554 34.41 6.39107 34.5326C6.50304 34.6939 6.62296 34.8518 6.74375 35.0087L6.98093 35.3244C7.06469 35.4372 7.14757 35.551 7.23663 35.6612C7.36712 35.8243 7.50643 35.9821 7.64574 36.1408L7.90849 36.4459C7.99313 36.5455 8.07778 36.646 8.16683 36.743C8.32113 36.9106 8.48424 37.0737 8.64648 37.2359L8.92157 37.5145C9.00622 37.6018 9.09086 37.69 9.17903 37.7746C9.38359 37.9704 9.59873 38.1582 9.81386 38.3469L10.0475 38.5549C10.1198 38.6211 10.1921 38.6872 10.2679 38.7516C10.6461 39.069 11.0367 39.3776 11.43 39.6685C11.4917 39.7144 11.5552 39.7576 11.6196 39.8008L11.7915 39.9198C12.0084 40.075 12.2262 40.2302 12.4492 40.381H12.451ZM27.5503 31.1592V43.8928L27.3069 43.8884C27.2135 43.8875 27.12 43.8858 27.0274 43.8831C26.8908 43.8787 26.7541 43.8708 26.6183 43.8628L26.2894 43.8452C26.2004 43.8408 26.1104 43.8364 26.0223 43.8311C25.8838 43.8214 25.7472 43.8091 25.6105 43.7967L25.2993 43.7694C25.2076 43.7623 25.1168 43.7553 25.0259 43.7456C24.884 43.7306 24.7429 43.7129 24.6018 43.6953L24.2968 43.6583C24.2112 43.6486 24.1257 43.6389 24.0411 43.6265C23.8824 43.6045 23.7245 43.5789 23.5667 43.5534L23.2987 43.511C23.2211 43.4996 23.1435 43.4881 23.0659 43.474C22.8931 43.444 22.722 43.4096 22.5501 43.3761L22.1022 43.2897C21.9082 43.2492 21.716 43.2033 21.5229 43.1575L21.1517 43.0719C20.9057 43.0111 20.6624 42.9441 20.4199 42.8771L20.2127 42.8215C19.9156 42.7369 19.6211 42.6461 19.3283 42.5509C18.3717 42.2405 17.4662 41.8905 16.595 41.4972L16.536 41.596L16.4998 41.5792L16.5474 41.4743C16.2732 41.35 16.0008 41.2212 15.7318 41.0872L15.6022 41.0193C15.3615 40.8976 15.1226 40.7751 14.8863 40.6464L14.7038 40.5432C14.4878 40.4224 14.2717 40.3016 14.0592 40.1755L13.8494 40.0459C13.7251 39.9701 13.6008 39.8943 13.4773 39.8167C13.4755 39.4084 13.4808 39.0055 13.487 38.6034L13.4888 38.2957C13.5152 37.1222 13.5814 35.9601 13.6854 34.8421C13.6916 34.7768 13.6995 34.7125 13.7066 34.6481L13.7268 34.4717C13.7709 34.0397 13.815 33.6086 13.8706 33.1853C13.8847 33.0795 13.9005 32.9755 13.9173 32.8706L13.9737 32.4923C14.0178 32.1846 14.0619 31.876 14.113 31.5745C14.1342 31.4519 14.158 31.332 14.1818 31.2121L14.2673 30.7624C14.3141 30.5102 14.3608 30.2589 14.4128 30.0121C14.4401 29.8833 14.471 29.7573 14.501 29.632L14.6112 29.1612C14.6623 28.939 14.7126 28.7168 14.769 28.4991C14.8034 28.3677 14.8404 28.239 14.8775 28.1093L15 27.6747L15.0036 27.6614C15.0512 27.6923 15.0988 27.7231 15.1473 27.7522C15.2407 27.8096 15.336 27.8651 15.4312 27.9207L15.6366 28.0414C15.7169 28.0891 15.7962 28.1358 15.8782 28.1816C15.9752 28.2354 16.074 28.2874 16.1727 28.3395L16.3922 28.4559C16.4716 28.4982 16.551 28.5414 16.6321 28.5819C16.7335 28.6331 16.8375 28.6824 16.9415 28.7318L17.1708 28.842C17.2502 28.8808 17.3286 28.9187 17.4097 28.9558C17.5147 29.0034 17.6213 29.0492 17.7272 29.0942L17.9626 29.1956C18.0437 29.2318 18.1248 29.267 18.2077 29.3014C18.3197 29.3473 18.4334 29.3913 18.548 29.4345L18.7843 29.5262C18.8646 29.558 18.9439 29.5888 19.025 29.6188C19.1414 29.662 19.2604 29.7017 19.3795 29.7423L19.6193 29.8251C19.7004 29.8534 19.7807 29.8816 19.8627 29.908C19.9834 29.9468 20.1069 29.9839 20.2294 30.0209L20.4843 30.0985C20.5618 30.1223 20.6386 30.1461 20.717 30.1681C20.8846 30.2157 21.0556 30.2598 21.2267 30.3039L21.5873 30.3991C21.88 30.4714 22.1754 30.5384 22.4734 30.6002L22.6365 30.6319C22.8807 30.6813 23.125 30.7289 23.3719 30.7721C23.445 30.7844 23.5182 30.7959 23.5923 30.8065L23.8374 30.8444C23.9864 30.8682 24.1345 30.892 24.2853 30.9132C24.3611 30.9238 24.437 30.9326 24.5128 30.9405L24.7694 30.9714C24.9157 30.9899 25.063 31.0084 25.2102 31.0234C25.2922 31.0322 25.3751 31.0384 25.458 31.0454L25.726 31.0684C25.8644 31.0807 26.0038 31.093 26.1431 31.1027C26.2312 31.1089 26.3212 31.1133 26.4102 31.1168L26.6844 31.131C26.8185 31.1389 26.9516 31.1459 27.0865 31.1504C27.1755 31.1539 27.2655 31.1548 27.3554 31.1556L27.5503 31.1592ZM29.1038 43.8831C29.0113 43.8866 28.9178 43.8875 28.8243 43.8884L28.5819 43.8928V31.1592L28.775 31.1556C28.8649 31.1539 28.9548 31.153 29.0448 31.1504C29.1789 31.1459 29.3119 31.138 29.446 31.131L29.721 31.1168C29.8101 31.1124 29.9 31.1089 29.9882 31.1027C30.1275 31.093 30.2659 31.0807 30.4052 31.0684L30.6839 31.0446C30.7632 31.0384 30.8426 31.0322 30.9211 31.0234C31.0762 31.0075 31.2305 30.9881 31.3848 30.9687L31.6238 30.9396C31.6978 30.9308 31.7719 30.9229 31.8451 30.9123C31.9959 30.892 32.144 30.8682 32.293 30.8444L32.5372 30.8065C32.6113 30.7959 32.6854 30.7844 32.7594 30.7721C33.0063 30.7298 33.2505 30.6813 33.4948 30.6319L33.6596 30.6002C33.9568 30.5384 34.2521 30.4714 34.5449 30.3991L34.8976 30.3066C35.0714 30.2625 35.2441 30.2175 35.4151 30.169C35.4918 30.147 35.5668 30.124 35.6417 30.1011L35.8815 30.0288C36.0112 29.99 36.1417 29.9512 36.2695 29.9098C36.3489 29.8842 36.4264 29.8569 36.5049 29.8296L36.7474 29.7458C36.8682 29.7052 36.9881 29.6638 37.1071 29.6206C37.1891 29.5906 37.2694 29.5589 37.3505 29.5271L37.5929 29.4328C37.704 29.3905 37.816 29.3473 37.9253 29.3023C38.0091 29.2679 38.0929 29.2318 38.1758 29.1947L38.4129 29.0924C38.517 29.0484 38.621 29.0034 38.7224 28.9567C38.8053 28.9187 38.8873 28.8791 38.9684 28.8394L39.2003 28.7283C39.3008 28.6807 39.4013 28.6331 39.5001 28.5828C39.583 28.5414 39.6641 28.4973 39.7452 28.4532L39.9595 28.3395C40.0582 28.2874 40.157 28.2363 40.2539 28.1816C40.3342 28.1367 40.4135 28.0891 40.4929 28.0423L40.7001 27.9207C40.7953 27.8651 40.8905 27.8096 40.984 27.7522C41.0325 27.7223 41.0801 27.6914 41.1277 27.6605L41.1304 27.6702L41.2538 28.1076C41.2908 28.2363 41.3287 28.3659 41.3623 28.4973C41.4196 28.7204 41.4725 28.9487 41.5245 29.1762L41.6312 29.6303C41.662 29.7564 41.692 29.8825 41.7193 30.0112C41.7714 30.2563 41.8181 30.5058 41.8639 30.7562L41.9504 31.2112C41.9742 31.3311 41.998 31.4519 42.0191 31.5736C42.0694 31.8672 42.1126 32.167 42.1549 32.4659L42.2157 32.8723C42.2325 32.9755 42.2484 33.0778 42.2616 33.1827C42.3171 33.6059 42.3612 34.038 42.4053 34.47L42.4247 34.6446C42.4326 34.7098 42.4406 34.7742 42.4468 34.8403C42.5508 35.9574 42.6169 37.1195 42.6434 38.2948L42.6451 38.6008C42.6522 39.0037 42.6566 39.4076 42.6557 39.8149C42.5314 39.8925 42.4071 39.9683 42.2819 40.045L42.0729 40.1747C41.8639 40.299 41.6516 40.418 41.4381 40.5362L41.2459 40.6455C41.0201 40.7689 40.7909 40.8862 40.5617 41.0017L40.4003 41.0863C40.1402 41.2159 39.8757 41.3403 39.6094 41.4611L39.5653 41.4822C38.6686 41.8878 37.7631 42.2378 36.847 42.5359L36.6883 42.5844C36.4326 42.6655 36.1787 42.7448 35.9212 42.8189L35.5571 42.9168C35.3666 42.9688 35.1754 43.0217 34.9831 43.0693C34.9108 43.0869 34.8376 43.1037 34.7644 43.1196L34.499 43.1804C34.343 43.2174 34.1878 43.2536 34.0308 43.2871C33.9515 43.3038 33.8721 43.3188 33.7919 43.3338L33.5071 43.3885C33.3607 43.4176 33.2144 43.4467 33.0671 43.4722C32.9825 43.4872 32.8979 43.4996 32.8123 43.5128L32.5091 43.5604C32.3707 43.5825 32.2313 43.6054 32.092 43.6248C31.9994 43.638 31.9059 43.6486 31.8133 43.6592L31.5136 43.6953C31.3787 43.7129 31.2429 43.7297 31.1071 43.7438C31.011 43.7535 30.9149 43.7614 30.8197 43.7694L30.5058 43.7967C30.3744 43.8082 30.243 43.8205 30.1116 43.8293C30.0199 43.8355 29.9282 43.8399 29.8365 43.8443L29.52 43.8611C29.3825 43.869 29.244 43.8769 29.1056 43.8814L29.1038 43.8831ZM44.1158 38.8159C44.0083 38.8953 43.8972 38.9711 43.7861 39.0478L43.6785 39.1219V38.8477C43.6767 38.6405 43.6767 38.4342 43.6714 38.2305C43.667 38.0189 43.6573 37.8108 43.6476 37.6027L43.6247 37.0393C43.6177 36.8427 43.6106 36.6469 43.6 36.453C43.5868 36.2202 43.5683 35.9918 43.5498 35.7635L43.5101 35.2406C43.4977 35.0651 43.4854 34.8897 43.4695 34.7177C43.444 34.44 43.4113 34.1667 43.3787 33.8942L43.3249 33.4199C43.3108 33.2885 43.2967 33.1562 43.28 33.0266C43.2174 32.5505 43.1442 32.0832 43.0675 31.6194L43.0313 31.3787C42.9387 30.8365 42.8347 30.296 42.7227 29.7731L42.6875 29.6224C42.5843 29.1489 42.475 28.6798 42.3551 28.2196C42.333 28.1331 42.3083 28.0485 42.2836 27.963L42.2016 27.6711C42.1461 27.4657 42.0897 27.2594 42.0306 27.0557L42.1152 26.9931L42.3357 26.8326C42.4018 26.785 42.4679 26.7383 42.5323 26.6889C42.7333 26.5346 42.9246 26.375 43.116 26.2154L43.1777 26.1652C43.2121 26.1378 43.2456 26.1105 43.2782 26.0832C43.5171 25.8777 43.7473 25.6661 43.9703 25.4501C44.0232 25.399 44.0735 25.3461 44.1238 25.2932L44.2842 25.1283C44.3962 25.0154 44.5073 24.9026 44.6122 24.7871C44.6713 24.7218 44.7269 24.6566 44.7824 24.5904L44.949 24.3965C45.0346 24.2977 45.1201 24.1998 45.2003 24.0993C45.2585 24.0261 45.3141 23.9512 45.3687 23.8771L45.5248 23.6682C45.5953 23.5756 45.6659 23.483 45.7311 23.3887C45.7875 23.3067 45.8405 23.2247 45.8925 23.1418L46.0283 22.9319C46.0882 22.8402 46.149 22.7485 46.2037 22.6551C46.2134 22.6383 46.224 22.6216 46.2328 22.6048L46.3466 22.7662C46.4153 22.864 46.485 22.961 46.5511 23.0616C46.6578 23.2238 46.7583 23.3895 46.8597 23.5562L47.0731 23.9018C47.1348 24.0006 47.1965 24.0984 47.2556 24.199C47.357 24.3735 47.4522 24.5516 47.5474 24.7306L47.7397 25.0851C47.7943 25.1829 47.849 25.2817 47.9001 25.3822C47.9927 25.5638 48.08 25.7499 48.1673 25.9368L48.3463 26.3133C48.3939 26.412 48.4424 26.5099 48.4873 26.6104C48.5746 26.8062 48.6557 27.0063 48.7369 27.2065L48.892 27.5821C48.9344 27.6817 48.9767 27.7805 49.0155 27.8819C49.101 28.1023 49.1786 28.328 49.2562 28.5528L49.3884 28.9276C49.4211 29.0166 49.4537 29.1057 49.4837 29.1965C49.6292 29.6409 49.7658 30.0949 49.8893 30.5473C49.9122 30.6319 49.9333 30.7192 49.9536 30.8056L50.0374 31.1415C50.0912 31.3514 50.1458 31.5612 50.1961 31.7737C50.0638 32.0294 49.921 32.2816 49.7773 32.5329C49.7535 32.5743 49.7306 32.6166 49.7085 32.659C49.6882 32.6978 49.668 32.7374 49.645 32.7753C49.422 33.1518 49.1804 33.5283 48.9273 33.8942C48.8771 33.9674 48.8224 34.0379 48.7686 34.1094L48.5464 34.41C48.4089 34.5996 48.2722 34.7892 48.1241 34.9734C48.05 35.0669 47.9707 35.1568 47.8922 35.2468L47.6012 35.588C47.4831 35.7291 47.364 35.871 47.2388 36.0086C47.1524 36.1029 47.0616 36.1937 46.9708 36.2854L46.6472 36.617C46.5247 36.7448 46.4021 36.8726 46.2734 36.9961C46.1781 37.0878 46.0776 37.176 45.978 37.2641L45.6385 37.5701C45.5045 37.6926 45.3705 37.8152 45.2303 37.9342C45.128 38.0206 45.0205 38.1035 44.9138 38.1864L44.5584 38.4685C44.413 38.5858 44.2675 38.7031 44.1158 38.8159ZM14.1016 27.0557C14.0416 27.2629 13.9843 27.4736 13.9279 27.6835L13.8494 27.9621C13.8247 28.0467 13.8 28.1323 13.778 28.2187C13.6581 28.678 13.5496 29.148 13.4456 29.6215L13.4103 29.7705C13.2966 30.303 13.1925 30.8426 13.1008 31.3778L13.0647 31.6177C12.988 32.0823 12.9148 32.5487 12.8522 33.0249C12.8354 33.1527 12.8213 33.2841 12.8072 33.4146L12.7526 33.8925C12.7199 34.1658 12.6882 34.4382 12.6617 34.716C12.6459 34.8844 12.6344 35.0554 12.6221 35.2265L12.5806 35.774C12.5621 35.9989 12.5445 36.2228 12.5312 36.4512C12.5198 36.6443 12.5127 36.8409 12.5066 37.0375L12.4845 37.5904C12.4748 37.802 12.4651 38.0136 12.4607 38.2287C12.4554 38.4324 12.4554 38.6396 12.4545 38.8459V39.1201L12.347 39.0469C12.2359 38.9702 12.1239 38.8944 12.0163 38.8142C11.8594 38.6978 11.7086 38.5752 11.557 38.4535L11.2113 38.1793C11.1064 38.0973 11.0015 38.0162 10.901 37.9307C10.7484 37.802 10.6029 37.6679 10.4566 37.5348L10.1356 37.2456C10.0422 37.1627 9.94788 37.0798 9.85883 36.9943C9.70806 36.8497 9.56434 36.6989 9.42062 36.5491L9.12437 36.244C9.04677 36.1655 8.9683 36.0879 8.89424 36.0068C8.72143 35.8172 8.55831 35.6224 8.39519 35.4275L8.17036 35.163C8.11481 35.0995 8.06014 35.0369 8.00812 34.9726C7.75242 34.6525 7.51348 34.3219 7.33538 34.0688L7.26396 33.9727C7.24368 33.9463 7.22428 33.9207 7.20577 33.8942C6.95007 33.5257 6.70848 33.1474 6.48541 32.7718L6.43868 32.6854C6.25088 32.3645 6.08512 32.0638 5.93611 31.772C5.98548 31.5621 6.03838 31.3558 6.09217 31.1486L6.17858 30.8012C6.19886 30.7148 6.22002 30.6284 6.24294 30.5437C6.36726 30.0897 6.50392 29.6347 6.64941 29.1921C6.67762 29.1048 6.70936 29.0193 6.74111 28.9337L6.86366 28.5881C6.94566 28.35 7.02766 28.112 7.1176 27.8792C7.15727 27.7761 7.1996 27.6764 7.2428 27.5759L7.40063 27.1941C7.47998 26.9975 7.56021 26.8009 7.64574 26.6078C7.69247 26.5029 7.74273 26.4006 7.79211 26.2983L7.9658 25.9342C8.05309 25.7481 8.1395 25.5612 8.23296 25.3796C8.28498 25.2773 8.34053 25.1777 8.39607 25.078L8.59534 24.7112C8.68792 24.5384 8.7805 24.3656 8.87749 24.1972C8.93921 24.0923 9.00357 23.99 9.06793 23.8868L9.28484 23.535C9.38183 23.3754 9.47881 23.2159 9.58109 23.0598C9.65251 22.9513 9.72745 22.8455 9.8024 22.7397L9.89939 22.6013L9.9276 22.6498C9.99197 22.7574 10.0607 22.8632 10.1312 22.9699L10.26 23.1682C10.3049 23.2397 10.3508 23.3111 10.3993 23.3816C10.4839 23.5033 10.5747 23.6223 10.6655 23.7413L10.7925 23.9106C10.8375 23.9715 10.8824 24.0323 10.9301 24.0923C11.0456 24.2369 11.169 24.3771 11.2916 24.5181L11.3974 24.6416C11.437 24.6883 11.4758 24.735 11.5182 24.7809C11.6839 24.9634 11.8594 25.1415 12.0375 25.3178L12.16 25.4439C12.384 25.6617 12.6168 25.8742 12.8575 26.0823C13.1141 26.301 13.3539 26.4967 13.6016 26.6871C13.6589 26.7312 13.7189 26.7735 13.7789 26.8159L13.9834 26.9649L14.1016 27.0522V27.0557ZM4.84984 31.9086C4.7555 32.3442 4.66556 32.8124 4.58268 33.3C4.36931 32.2904 4.22206 31.2676 4.14095 30.2378C4.16387 30.2986 4.18679 30.3603 4.2106 30.4212L4.30759 30.6769C4.3746 30.8444 4.44602 31.011 4.51832 31.1768L4.60296 31.3761C4.68231 31.5542 4.7652 31.7323 4.8516 31.9095L4.84984 31.9086ZM51.993 30.2378C51.9119 31.2676 51.7638 32.2895 51.5504 33.3C51.4675 32.8133 51.3776 32.3468 51.2832 31.9086C51.3688 31.7314 51.4516 31.5533 51.5319 31.3752L51.6192 31.1698C51.6897 31.0066 51.7602 30.8435 51.8255 30.6778L51.9278 30.4088C51.9498 30.3515 51.971 30.2951 51.993 30.2378ZM51.9533 26.0267C51.8713 26.7295 51.7426 27.4357 51.5698 28.1287L51.5433 28.2275C51.4922 28.4259 51.4384 28.6251 51.3802 28.8226L51.3141 29.0307C51.2638 29.1903 51.2145 29.3517 51.1589 29.5113L51.0646 29.7714C51.0081 29.9274 50.9597 30.0614 50.9076 30.1955L50.8803 30.2642L50.8662 30.2122C50.8133 30.0191 50.7542 29.8296 50.696 29.6391L50.5761 29.2432C50.5338 29.0995 50.4906 28.9567 50.4447 28.8156C50.3795 28.6181 50.309 28.425 50.2384 28.2319L50.1018 27.8519C50.055 27.7205 50.0092 27.5882 49.9589 27.4595C49.8796 27.255 49.794 27.0539 49.7085 26.8538L49.556 26.4888C49.5084 26.3733 49.4616 26.2577 49.4105 26.1449C49.3126 25.9262 49.2077 25.7137 49.1037 25.5004L48.9441 25.1706C48.8973 25.071 48.8506 24.9713 48.8003 24.8743C48.6557 24.5931 48.5014 24.3189 48.3472 24.0447L48.2431 23.8551C48.2061 23.7854 48.1682 23.7158 48.1285 23.6479C47.8948 23.2485 47.6497 22.8526 47.3976 22.4708C47.3288 22.3659 47.2565 22.2645 47.1833 22.1631L46.9426 21.8175C46.8862 21.7355 46.8306 21.6535 46.7733 21.5723C46.8191 21.4745 46.865 21.3766 46.9073 21.2787C46.9258 21.2364 46.9426 21.1932 46.9593 21.1491L47.0122 21.0169C47.0528 20.9164 47.0934 20.8167 47.1295 20.7162C47.1454 20.6721 47.1595 20.628 47.1736 20.5839L47.2177 20.4535C47.2529 20.3521 47.2873 20.2498 47.3182 20.1475C47.3323 20.0999 47.3455 20.0514 47.3579 20.0029L47.3976 19.8574C47.424 19.7631 47.4496 19.6696 47.4725 19.5753C47.4848 19.5215 47.4963 19.4677 47.5069 19.4139L47.5404 19.2552C47.5589 19.1697 47.5783 19.0833 47.5933 18.9969C47.6039 18.936 47.6127 18.8761 47.6206 18.8152L47.6471 18.6407C47.6585 18.5657 47.6709 18.4899 47.6797 18.4149C47.6894 18.3347 47.6956 18.2545 47.7017 18.1742L47.7167 18.0023C47.7229 17.9441 47.7282 17.8868 47.7317 17.8286C47.7432 17.6337 47.7494 17.438 47.7494 17.2414C47.7494 16.9813 47.7379 16.7088 47.715 16.432C47.7097 16.3703 47.7017 16.3077 47.6938 16.2459L47.6815 16.1516C47.6594 15.9497 47.6409 15.7874 47.6145 15.6252C47.603 15.5556 47.5889 15.4868 47.5739 15.4171L47.6956 15.5159C47.7494 15.5591 47.804 15.6032 47.8569 15.6481C48.005 15.7742 48.1505 15.9047 48.2951 16.0361L48.52 16.2362C48.7219 16.4232 48.9203 16.6145 49.1151 16.8102C50.6863 19.6731 51.6412 22.7741 51.9533 26.0311V26.0267ZM9.35978 21.5723C9.30247 21.6543 9.24604 21.7372 9.18961 21.8192L8.94626 22.1684C8.87484 22.268 8.80342 22.3685 8.73553 22.4717C8.48513 22.8508 8.24001 23.2467 8.00548 23.6479C7.96316 23.7202 7.92348 23.7943 7.8838 23.8683L7.77183 24.0729C7.62282 24.3383 7.47293 24.6037 7.33361 24.8761C7.28336 24.9731 7.23663 25.0727 7.1899 25.1724L7.03031 25.5021C6.92538 25.7155 6.82134 25.9289 6.72347 26.1467C6.67321 26.2595 6.62561 26.375 6.57799 26.4905L6.42016 26.8661C6.3364 27.0627 6.25264 27.2603 6.17505 27.4604C6.12567 27.5874 6.08071 27.717 6.03486 27.8466L5.89555 28.2354C5.82501 28.4276 5.75447 28.6198 5.69011 28.8165C5.64338 28.9575 5.60018 29.1021 5.55785 29.2467L5.43618 29.647C5.37798 29.8348 5.32067 30.0226 5.26777 30.2131L5.25366 30.2642L5.22457 30.1946C5.18401 30.0897 5.14521 29.9839 5.1073 29.878L5.04205 29.6982C5.01825 29.6347 4.99444 29.5712 4.97328 29.5068C4.93448 29.394 4.89833 29.2802 4.86306 29.1665L4.8084 28.9946C4.789 28.9337 4.7696 28.8729 4.75109 28.8121C4.71758 28.6983 4.68672 28.5828 4.65586 28.4682L4.6056 28.2813C4.58974 28.2248 4.57387 28.1684 4.55976 28.112C4.53066 27.9956 4.50509 27.8792 4.47952 27.7628L4.39929 27.4031C4.37019 27.2594 4.3455 27.1139 4.31993 26.9693L4.26968 26.6907C4.23441 26.4685 4.20443 26.2454 4.17798 26.0223C4.48922 22.7697 5.44411 19.6705 7.01708 16.8067C7.21194 16.611 7.41032 16.4196 7.61135 16.2327L7.8115 16.0555C7.96492 15.9171 8.11834 15.7786 8.2744 15.6455C8.33083 15.5979 8.38726 15.552 8.44457 15.5062L8.55743 15.4154C8.54332 15.4841 8.52833 15.5538 8.51687 15.6226C8.4913 15.7786 8.47366 15.9347 8.45603 16.0908L8.43663 16.2477C8.4287 16.3085 8.42076 16.3694 8.41547 16.4302C8.39255 16.7053 8.38109 16.9769 8.38109 17.2396C8.38109 17.4362 8.38726 17.632 8.39872 17.8277C8.40137 17.8806 8.40665 17.9326 8.41194 17.9847L8.42605 18.1451C8.4331 18.2342 8.44016 18.3241 8.45074 18.4132C8.45956 18.4855 8.47102 18.5569 8.4816 18.6274L8.50717 18.7985C8.51599 18.8646 8.52569 18.9299 8.53715 18.996C8.55302 19.0833 8.57153 19.1706 8.59093 19.2587L8.62356 19.4139C8.63414 19.4668 8.64472 19.5206 8.65706 19.5735C8.67998 19.667 8.70555 19.7595 8.73112 19.8512L8.77256 20.0029C8.78491 20.0514 8.79725 20.099 8.81224 20.1475C8.84134 20.2454 8.87484 20.3424 8.90835 20.4402L8.95508 20.5787C8.97007 20.6254 8.98506 20.6712 9.00181 20.7171C9.03796 20.8176 9.0794 20.9181 9.11996 21.0186L9.17286 21.15C9.18961 21.1932 9.20637 21.2364 9.22488 21.2796C9.2672 21.3775 9.31217 21.4754 9.35802 21.5732L9.35978 21.5723ZM40.82 26.6334L40.7618 26.6704L40.4603 26.8652C40.3306 26.9455 40.1984 27.0222 40.0653 27.0989L39.7672 27.2735C39.6173 27.3572 39.463 27.4384 39.3096 27.5186L39.0504 27.6561C38.8679 27.7487 38.6801 27.8369 38.4932 27.9251L38.3107 28.0132C38.0973 28.1111 37.8795 28.2037 37.6608 28.2954L37.5489 28.3439C36.519 28.7671 35.4258 29.1215 34.3015 29.3984C33.9991 29.4716 33.7258 29.5342 33.4499 29.5915L33.292 29.6215C33.0574 29.6691 32.822 29.7149 32.5848 29.7564L32.3362 29.7952C32.1052 29.8322 31.9077 29.8648 31.7067 29.8922L31.3381 29.9371C31.1644 29.9592 30.9907 29.9803 30.8161 29.9988L30.3876 30.0359C30.2316 30.05 30.0756 30.0641 29.9177 30.0747L29.4151 30.1011C29.2802 30.1091 29.1462 30.1161 29.0104 30.1205C28.9275 30.1232 28.8437 30.1249 28.76 30.1258L28.5836 30.1285V20.1925L28.6524 20.1898L29.0122 20.1775C29.1171 20.1748 29.222 20.1722 29.326 20.166C29.5341 20.1528 29.7396 20.1316 29.9441 20.1105L30.2492 20.0814C30.3426 20.0734 30.4361 20.0655 30.5278 20.054C30.7835 20.0223 31.033 19.9791 31.2817 19.9368L31.4827 19.905C31.555 19.8945 31.6273 19.8839 31.697 19.8698C32.0805 19.7966 32.4596 19.7111 32.8247 19.615C32.8679 19.6035 32.9093 19.5911 32.9499 19.5779L33.0239 19.555C33.3219 19.473 33.6182 19.3883 33.9056 19.2914C33.992 19.2623 34.075 19.2296 34.1579 19.197L34.425 19.0965C34.5969 19.033 34.7688 18.9704 34.9346 18.8999C35.0263 18.8611 35.1127 18.8188 35.2 18.7764L35.4707 18.6495C35.6179 18.5825 35.7652 18.5146 35.9054 18.4414C35.9962 18.3938 36.0826 18.3426 36.169 18.2906L36.4229 18.1443L36.616 18.3947C36.7209 18.5296 36.8259 18.6645 36.9264 18.8038C36.9969 18.9008 37.0648 19.0013 37.1327 19.1009L37.369 19.4448C37.4598 19.5735 37.5497 19.7031 37.6361 19.8363C37.7076 19.9465 37.7763 20.0593 37.8442 20.1722L38.0708 20.5407C38.1484 20.6651 38.2269 20.7885 38.301 20.9164C38.375 21.0442 38.4464 21.1756 38.517 21.307L38.7312 21.6967C38.7956 21.8113 38.8591 21.925 38.9199 22.0423C39.1174 22.4223 39.3105 22.8147 39.4921 23.2097C39.5362 23.3058 39.5786 23.4045 39.62 23.5024L39.7866 23.8851C39.866 24.0632 39.9445 24.2413 40.0194 24.4238C40.0661 24.5375 40.1093 24.6539 40.1525 24.7694L40.3139 25.1909C40.3774 25.3531 40.4409 25.5153 40.4999 25.682C40.5431 25.8046 40.5846 25.9298 40.6251 26.055L40.7689 26.4852L40.82 26.636V26.6334ZM27.5512 20.1925V30.1285L27.3748 30.1258C27.2911 30.1249 27.2082 30.1232 27.1244 30.1205C26.9886 30.1161 26.8546 30.1082 26.7197 30.1011L26.2162 30.0747C26.0584 30.0641 25.9015 30.0491 25.7437 30.035L25.3169 29.998C25.1414 29.9794 24.9677 29.9583 24.7932 29.9362L24.4264 29.8922C24.2262 29.8648 24.027 29.8322 23.8268 29.7996L23.5482 29.7564C23.3101 29.7149 23.073 29.6691 22.8367 29.6206L22.6841 29.5915C22.4055 29.5333 22.1286 29.4698 21.8536 29.4028C20.7091 29.1215 19.6158 28.7671 18.5859 28.3439L18.4854 28.3007C18.2632 28.2081 18.0419 28.1129 17.8241 28.0132L17.6434 27.9259C17.4547 27.8378 17.2678 27.7496 17.0844 27.6561L16.8181 27.5142C16.6665 27.4348 16.5157 27.3564 16.3676 27.2735L16.0766 27.1024C15.9417 27.0248 15.8068 26.9464 15.6754 26.8652L15.3783 26.6739L15.3157 26.6342L15.3615 26.4985L15.5035 26.0726C15.5467 25.9412 15.589 25.809 15.6349 25.6802C15.6957 25.5101 15.7601 25.3443 15.8253 25.1777L15.9822 24.7668C16.0255 24.6513 16.0687 24.5358 16.1145 24.4229C16.1912 24.2351 16.2723 24.0517 16.3534 23.8683L16.5166 23.4945C16.558 23.3975 16.5986 23.3014 16.6418 23.207C16.826 22.8094 17.0183 22.4161 17.214 22.0405C17.2757 21.9224 17.3401 21.8069 17.4053 21.6914L17.6152 21.3096C17.6866 21.1765 17.7589 21.0442 17.8338 20.9146C17.9079 20.7867 17.9864 20.6633 18.064 20.539L18.2888 20.1748C18.3576 20.0611 18.4272 19.9465 18.4995 19.8354C18.5842 19.7049 18.6732 19.5779 18.7623 19.451L18.9959 19.1106C19.0665 19.0075 19.1361 18.9034 19.2093 18.8029C19.3081 18.6671 19.4103 18.5357 19.5126 18.4044L19.7128 18.1443L19.9693 18.2915C20.0549 18.3426 20.1413 18.3938 20.2312 18.4405C20.3723 18.5146 20.5195 18.5816 20.6668 18.6486L20.9383 18.7764C21.0256 18.8188 21.112 18.8611 21.2029 18.899C21.3668 18.9687 21.537 19.0313 21.7081 19.0939L21.984 19.1979C22.066 19.2305 22.1472 19.2623 22.2318 19.2914C22.5192 19.3883 22.8155 19.4739 23.1135 19.5559L23.1867 19.5779C23.2281 19.5911 23.2696 19.6035 23.3119 19.615C23.6778 19.7111 24.0569 19.7966 24.4396 19.8698C24.511 19.8839 24.5842 19.8945 24.6583 19.905L24.869 19.9385C25.1132 19.98 25.3583 20.0223 25.6079 20.0532C25.7005 20.0646 25.793 20.0726 25.8865 20.0805L26.1898 20.1096C26.3952 20.1308 26.6007 20.1519 26.8096 20.1651C26.9128 20.1713 27.0177 20.174 27.1235 20.1766L27.4824 20.1889L27.5512 20.1925ZM18.8381 17.5844C18.8134 17.6179 18.7879 17.6505 18.7632 17.684L18.548 17.9662C18.4907 18.0411 18.4325 18.1152 18.377 18.1919C18.2359 18.3858 18.101 18.586 17.9661 18.7853L17.795 19.0357C17.7413 19.1124 17.6884 19.1882 17.6372 19.2667C17.4864 19.4986 17.3427 19.7366 17.1981 19.9756L17.0694 20.1863C17.0271 20.2533 16.9856 20.3203 16.9451 20.3891C16.7238 20.7682 16.5078 21.1606 16.3023 21.5556L16.2009 21.7628C16.0325 22.0934 15.8659 22.4267 15.708 22.7671C15.6675 22.8535 15.6296 22.9434 15.5917 23.0325L15.462 23.3287C15.3598 23.5588 15.2584 23.7881 15.1623 24.0235C15.1208 24.1258 15.0811 24.2307 15.0415 24.3356L14.9154 24.6654C14.8299 24.8832 14.7452 25.1009 14.6659 25.324C14.6279 25.4307 14.5918 25.54 14.5565 25.6485L14.4322 26.0188L14.4093 26.0021C14.344 25.9553 14.2788 25.9086 14.2153 25.8601C14.113 25.7816 14.0152 25.6996 13.9164 25.6185L13.7022 25.4439C13.6395 25.3937 13.5761 25.3425 13.5161 25.2905C13.4191 25.2068 13.3265 25.1203 13.234 25.0339L13.0294 24.8452C12.9739 24.7959 12.9192 24.7456 12.8663 24.6945C12.7658 24.5966 12.6714 24.497 12.5762 24.3965L12.3981 24.2113C12.354 24.1663 12.3099 24.1214 12.2676 24.0755C12.1124 23.9045 11.9669 23.7299 11.8232 23.5535L11.7218 23.4354C11.5499 23.2194 11.3868 22.9998 11.2325 22.7776C11.2096 22.745 11.1893 22.7115 11.1681 22.678L11.0738 22.5316C10.9794 22.3897 10.8851 22.2469 10.7987 22.1023C10.7705 22.0538 10.7449 22.0053 10.7193 21.9568L10.6126 21.7628L10.5659 21.679L10.6523 21.5697L10.8895 21.2664C10.96 21.1756 11.0297 21.0848 11.1029 20.9957C11.1805 20.9014 11.2607 20.8097 11.3418 20.718L11.6028 20.4164C11.6919 20.3115 11.78 20.2075 11.8726 20.1061C11.9343 20.0382 11.9987 19.972 12.0622 19.9059L12.1918 19.771C12.5348 19.4077 12.8901 19.0524 13.2507 18.7147L13.3786 18.5922C13.4306 18.541 13.4835 18.4908 13.5373 18.4414C13.6484 18.3409 13.763 18.243 13.8767 18.146L14.1783 17.8859C14.2638 17.811 14.3493 17.7351 14.4375 17.6628C14.5459 17.5729 14.6579 17.4865 14.769 17.4001L15.0856 17.1515C15.1825 17.0739 15.2804 16.9963 15.38 16.9213C15.4903 16.8384 15.6049 16.7582 15.7186 16.678L16.0404 16.4487C16.1471 16.3711 16.2547 16.2936 16.364 16.2186C16.4813 16.1393 16.6012 16.0625 16.7211 15.9858L17.0015 15.8051C17.0703 15.9003 17.1435 15.9938 17.2175 16.0855C17.4194 16.3288 17.609 16.5343 17.8047 16.7256C18.0014 16.9169 18.2218 17.11 18.4607 17.2996C18.5859 17.3992 18.7111 17.4927 18.8381 17.5844ZM41.916 25.8619C41.8569 25.9068 41.7961 25.95 41.7352 25.9941L41.7017 26.0188L41.6902 25.9862L41.5677 25.622C41.5351 25.5233 41.5033 25.4237 41.4681 25.3267C41.3702 25.0525 41.2653 24.7853 41.1603 24.5173L41.0651 24.2695C41.0343 24.1884 41.0043 24.1073 40.9717 24.0279C40.8368 23.6981 40.6939 23.3754 40.5493 23.0545L40.4999 22.9408C40.4761 22.8843 40.4514 22.8279 40.4259 22.7724C40.0467 21.9515 39.6297 21.1491 39.1862 20.3891C39.1597 20.3432 39.1324 20.2992 39.1042 20.2551L39.0478 20.1634C38.867 19.8609 38.6854 19.5603 38.4949 19.2676C38.4491 19.197 38.4015 19.1282 38.353 19.0595L38.2057 18.8443C38.0576 18.6248 37.9104 18.4052 37.7552 18.1928C37.7005 18.1169 37.6432 18.0429 37.5859 17.9697L37.376 17.6937L37.294 17.5844C37.4166 17.4971 37.533 17.4089 37.6432 17.3225C37.9077 17.1109 38.1281 16.9187 38.3248 16.7274L38.3292 16.7229C38.5249 16.5325 38.7136 16.3279 38.8899 16.1146C38.9763 16.0088 39.0557 15.9065 39.1306 15.8051L39.4181 15.9911C39.5353 16.0661 39.6535 16.141 39.7681 16.2195C39.8889 16.3015 40.0062 16.387 40.1234 16.4717L40.4514 16.7062C40.5528 16.7776 40.6534 16.849 40.7521 16.9222C40.8694 17.0104 40.9831 17.1012 41.0969 17.192L41.4072 17.4371C41.5042 17.5121 41.6003 17.587 41.6947 17.6646C41.8058 17.7563 41.9133 17.8506 42.0209 17.945L42.3268 18.2104C42.4168 18.288 42.5076 18.3647 42.5949 18.444C42.7095 18.5481 42.8206 18.6557 42.9317 18.7632L43.0666 18.8937C43.3496 19.1653 43.6256 19.4413 43.8936 19.7243L44.0347 19.8706C44.1105 19.9491 44.1872 20.0276 44.2604 20.1087C44.3486 20.2057 44.4341 20.3062 44.5197 20.4067L44.7842 20.7127C44.8671 20.807 44.9499 20.9014 45.0293 20.9984C45.1025 21.0874 45.1739 21.18 45.2444 21.2717L45.4834 21.5759L45.5671 21.6808L45.5345 21.7381L45.4208 21.9462C45.3925 21.9991 45.3643 22.0529 45.3335 22.1049C45.2682 22.216 45.1959 22.3244 45.1236 22.4338L44.9914 22.6392C44.9623 22.6868 44.9323 22.7344 44.8997 22.7803C44.7462 23.0016 44.5831 23.2211 44.4112 23.4372L44.2789 23.5923C44.144 23.7555 44.01 23.9186 43.8654 24.0773C43.8257 24.1205 43.7834 24.1637 43.742 24.206L43.5674 24.3876C43.4695 24.4908 43.3708 24.5948 43.2667 24.6962C43.2182 24.7439 43.168 24.7888 43.1169 24.8347L42.9238 25.0119C42.8224 25.1062 42.7218 25.2006 42.616 25.2923C42.5614 25.339 42.5049 25.3849 42.4485 25.4298L42.244 25.5973C42.1364 25.6864 42.0288 25.7755 41.916 25.8619ZM16.4672 14.9216L16.4628 14.9243L16.1251 15.1429C16.0113 15.2161 15.8967 15.2884 15.7865 15.3642C15.6454 15.4603 15.5079 15.56 15.3703 15.6596L15.0662 15.8765C14.9656 15.947 14.8642 16.0185 14.7664 16.0916C14.6147 16.2054 14.4675 16.3235 14.3202 16.4408L14.1844 16.5492C13.9067 16.7697 13.6334 16.9954 13.3653 17.2264L13.2207 17.3498C13.0991 17.453 12.9774 17.557 12.8592 17.6637C12.7561 17.7572 12.6564 17.8533 12.5568 17.9503L12.2835 18.2104C12.1777 18.31 12.071 18.4097 11.9687 18.5119C11.8673 18.6133 11.7677 18.7182 11.6689 18.8232L11.4097 19.0947C11.3127 19.1944 11.2166 19.294 11.1232 19.3972C11.0253 19.5056 10.9301 19.6158 10.8357 19.7269L10.5985 20.0011C10.506 20.1069 10.4134 20.2119 10.3243 20.3203C10.2397 20.4226 10.1577 20.5275 10.0766 20.6324L10.0254 20.5011C10.0051 20.4508 9.9858 20.4006 9.96728 20.3503C9.94083 20.2771 9.91702 20.2039 9.89322 20.1307L9.84472 19.9835C9.82797 19.935 9.8121 19.8865 9.79711 19.838C9.77507 19.7657 9.75655 19.6925 9.73715 19.6194L9.69572 19.4642C9.68337 19.4174 9.67015 19.3698 9.65868 19.3231C9.64105 19.2517 9.62694 19.1803 9.61283 19.1088L9.57756 18.9378C9.56787 18.8937 9.55817 18.8496 9.55111 18.8055C9.53701 18.7262 9.52554 18.6468 9.51496 18.5675L9.47352 18.2844C9.46206 18.1866 9.45413 18.0869 9.44619 17.9882L9.4268 17.7616C9.41621 17.587 9.41092 17.4116 9.41092 17.237C9.41092 16.9901 9.4215 16.7397 9.44266 16.4946C9.44531 16.4672 9.44884 16.4408 9.45236 16.4143L9.46559 16.3129C9.48498 16.126 9.50527 15.9391 9.53701 15.7531C9.54494 15.7054 9.5564 15.6578 9.56699 15.6102L9.61107 15.4004C9.63664 15.2708 9.66133 15.142 9.69395 15.0133C9.71511 14.9313 9.74068 14.8502 9.76537 14.7682L9.84208 14.5107C9.85001 14.4834 9.85795 14.4552 9.86589 14.427C9.95229 14.3697 10.0386 14.3132 10.1259 14.2568L10.3402 14.1166C10.4266 14.0602 10.513 14.0029 10.6003 13.9482C10.8489 13.7939 11.1002 13.644 11.3559 13.5021C11.4124 13.4703 11.4697 13.4412 11.527 13.4112L11.7606 13.2878C11.9096 13.2076 12.0578 13.1282 12.2094 13.0533C12.2711 13.0224 12.3346 12.9942 12.399 12.9651L12.652 12.8469C12.7958 12.7782 12.9404 12.7103 13.0867 12.6459C13.1581 12.6151 13.2313 12.586 13.3036 12.5569L13.5708 12.4475C13.7092 12.3902 13.8468 12.3329 13.9869 12.28C14.0628 12.2509 14.1395 12.2245 14.2171 12.198L14.4939 12.1001C14.6324 12.0508 14.7708 12.0005 14.9119 11.9555C14.993 11.9291 15.0767 11.9044 15.1596 11.8806L15.4347 11.7986C15.5749 11.7563 15.7151 11.7131 15.8579 11.6743C15.9064 11.661 15.9549 11.6487 16.0034 11.6364C15.9981 11.6566 15.9937 11.6778 15.9902 11.6981C15.969 11.8039 15.9549 11.9106 15.9408 12.0164C15.9285 12.0957 15.9232 12.1319 15.9196 12.1689C15.9038 12.3259 15.8958 12.4837 15.8958 12.6415C15.8958 12.8716 15.9126 13.1053 15.9461 13.3372C15.954 13.3945 15.9673 13.4518 15.9814 13.5091L16.0087 13.6387C16.0334 13.7675 16.059 13.8953 16.096 14.0223C16.1154 14.0902 16.1418 14.1572 16.1674 14.2242L16.2274 14.3891C16.2626 14.4905 16.2979 14.591 16.3429 14.6915C16.3746 14.7611 16.4116 14.8308 16.4487 14.8987L16.4601 14.9207L16.4672 14.9216ZM46.2637 14.4279L46.2848 14.5028L46.3624 14.7638C46.388 14.8475 46.4144 14.9304 46.4356 15.0142C46.4673 15.1376 46.4912 15.2611 46.5158 15.3845L46.5617 15.6049C46.5732 15.6543 46.5846 15.7037 46.5925 15.7531C46.6216 15.9241 46.6393 16.096 46.6578 16.268L46.6745 16.3967C46.6798 16.4302 46.6842 16.4637 46.6869 16.4963C46.7081 16.7432 46.7186 16.9927 46.7186 17.2379C46.7186 17.4124 46.7133 17.5879 46.7028 17.7625L46.6816 18.012C46.6745 18.1037 46.6675 18.1945 46.6569 18.2853C46.6516 18.3259 46.6455 18.3673 46.6393 18.4088L46.6155 18.5745C46.6049 18.6512 46.5943 18.7288 46.5802 18.8055L46.5185 19.1062C46.5044 19.1785 46.4894 19.2508 46.4726 19.3231C46.4612 19.3716 46.4471 19.4201 46.4338 19.4686L46.3924 19.622C46.3739 19.6934 46.3554 19.7657 46.3342 19.8363C46.3192 19.8865 46.3025 19.935 46.2866 19.9835L46.2372 20.1343C46.2143 20.2057 46.1905 20.2771 46.1658 20.3485C46.1473 20.3988 46.1279 20.4482 46.1085 20.4975L46.0565 20.6307C45.9754 20.5258 45.8934 20.4208 45.8087 20.3186C45.7214 20.2128 45.6315 20.1105 45.5407 20.0073L45.3044 19.734C45.2074 19.6202 45.1095 19.5065 45.0081 19.3954C44.9164 19.2949 44.8212 19.1953 44.7251 19.0965L44.4694 18.8293C44.3689 18.7227 44.2675 18.6151 44.1634 18.511C44.063 18.4105 43.958 18.3127 43.854 18.2148L43.5727 17.9468C43.4739 17.8515 43.3752 17.7563 43.2738 17.6637C43.1565 17.557 43.0349 17.453 42.9132 17.3498L42.7677 17.2255C42.4952 16.9901 42.2166 16.76 41.9327 16.5351L41.7802 16.4143C41.6435 16.3059 41.5077 16.1966 41.3675 16.0916C41.2679 16.0167 41.1647 15.9444 41.0625 15.8721L40.7512 15.6499C40.6181 15.5529 40.4841 15.4568 40.3474 15.3633C40.2363 15.2875 40.1234 15.2152 40.0097 15.1429L39.6791 14.9278L39.6667 14.9198L39.6764 14.9013C39.7143 14.8317 39.7523 14.7611 39.784 14.6897C39.8281 14.591 39.8642 14.4896 39.8995 14.3882L39.9603 14.2224C39.9859 14.1563 40.0115 14.0893 40.0318 14.0223C40.0688 13.8953 40.0935 13.7692 40.1182 13.6431L40.1473 13.5073C40.1605 13.4509 40.1737 13.3945 40.1825 13.3372C40.216 13.1044 40.2337 12.8699 40.2337 12.6406C40.2337 12.4828 40.2248 12.325 40.2099 12.1671C40.2063 12.131 40.201 12.0931 40.1949 12.0552L40.0802 12.0596L40.0758 12.0349L40.0732 12.0199L40.1861 12.0023C40.1728 11.9 40.1587 11.7977 40.1384 11.6954C40.134 11.6752 40.1296 11.6549 40.1252 11.6337C40.1746 11.6461 40.224 11.6584 40.2725 11.6725C40.403 11.7078 40.5308 11.7475 40.6595 11.7863L40.9443 11.8718C41.036 11.8991 41.1286 11.9256 41.2185 11.9547C41.3437 11.9952 41.4681 12.0393 41.5915 12.0843L41.886 12.1883C41.9715 12.2174 42.0579 12.2474 42.1426 12.2791C42.2695 12.3276 42.3939 12.3788 42.5182 12.4308L42.8038 12.5472C42.8841 12.5789 42.9643 12.6115 43.0437 12.6459C43.1786 12.705 43.3117 12.7685 43.4448 12.8311L43.7111 12.9554C43.7808 12.9871 43.8513 13.0189 43.9192 13.0533C44.0823 13.1335 44.2419 13.2199 44.4015 13.3054L44.614 13.4174C44.6669 13.4447 44.7207 13.4721 44.7727 13.5012C45.0522 13.6572 45.3273 13.8195 45.598 13.9888C45.6509 14.0214 45.702 14.0567 45.7532 14.091L45.9586 14.2259C46.0609 14.2921 46.1632 14.3582 46.2646 14.4261L46.2637 14.4279ZM35.766 17.3296L35.6567 17.3939C35.5782 17.4407 35.4989 17.4874 35.416 17.5315C35.2996 17.5923 35.1762 17.6487 35.0536 17.7043L34.7591 17.8427C34.6807 17.8806 34.6023 17.9194 34.5203 17.9538C34.3748 18.0155 34.2231 18.0711 34.0705 18.1266L33.7813 18.236C33.7099 18.2642 33.6385 18.2924 33.5644 18.3171C33.3228 18.3991 33.0725 18.4687 32.8221 18.5393L32.6889 18.5798C32.6448 18.5939 32.6007 18.608 32.554 18.6195C32.2075 18.7103 31.8504 18.7906 31.4933 18.8584L31.3125 18.8867C31.0092 18.9413 30.7041 18.9925 30.392 19.0313C30.3224 19.0401 30.2527 19.0454 30.1831 19.0515L29.8956 19.0789C29.6831 19.1009 29.4715 19.123 29.2555 19.1371C29.1691 19.1424 29.0818 19.1441 28.9945 19.1468L28.6815 19.1573L28.581 19.1618V11.8418L28.6304 11.863L28.73 11.9079C28.8146 11.9458 28.9011 11.9846 28.9954 12.0287L29.1523 12.1054C29.2467 12.1513 29.3331 12.1927 29.4248 12.2394L29.6196 12.3408C29.7149 12.3911 29.811 12.4414 29.9115 12.4969L30.139 12.6248C30.2395 12.6821 30.3426 12.7411 30.4485 12.8037L30.7006 12.9572C30.8082 13.0233 30.9184 13.0921 31.0304 13.1644C31.1194 13.2217 31.2111 13.2816 31.3028 13.3425C31.4166 13.4183 31.533 13.4985 31.6502 13.5805C31.7463 13.6475 31.8417 13.7145 31.9394 13.7851C32.0593 13.8715 32.1819 13.9632 32.3036 14.0558C32.4032 14.1316 32.5028 14.2065 32.6042 14.2868C32.7295 14.3846 32.8573 14.4896 32.9842 14.5954L33.0495 14.6492C33.1288 14.7144 33.2091 14.7805 33.2902 14.8493C33.4101 14.9516 33.5309 15.06 33.6517 15.1694L33.7822 15.2866C33.8519 15.3492 33.9224 15.4118 33.9929 15.4771C34.1217 15.5979 34.253 15.7266 34.3827 15.8545L34.5334 16.0017C34.5907 16.0573 34.648 16.1119 34.7053 16.171C34.8808 16.3491 35.0554 16.5395 35.2308 16.7318L35.3173 16.8235C35.3525 16.8605 35.3869 16.8966 35.4222 16.9354C35.5368 17.0633 35.6514 17.1947 35.7652 17.3287L35.766 17.3296ZM27.5512 11.8427V19.16L27.4515 19.1556L27.1376 19.145C27.0503 19.1432 26.9622 19.1415 26.8758 19.1362C26.6659 19.123 26.4596 19.1018 26.2542 19.0798L25.9553 19.0507C25.883 19.0445 25.8107 19.0383 25.7392 19.0295C25.4403 18.9925 25.1476 18.9422 24.8558 18.8902L24.638 18.8558C24.28 18.787 23.9238 18.7068 23.5791 18.6169C23.5244 18.6027 23.4715 18.586 23.4186 18.5692L23.2079 18.5066C22.9918 18.4458 22.7758 18.385 22.5677 18.3144C22.4901 18.288 22.4152 18.2589 22.3403 18.2289L22.0414 18.116C21.8968 18.0631 21.7513 18.0102 21.612 17.9503C21.5264 17.9141 21.4444 17.8736 21.3624 17.8348L21.0741 17.699C20.9524 17.6434 20.8316 17.5879 20.7153 17.5279C20.6315 17.4847 20.553 17.4371 20.4728 17.3895L20.3661 17.3269C20.4798 17.1929 20.5945 17.0624 20.7082 16.9337C20.7444 16.8931 20.7814 16.8552 20.8175 16.8164L20.9101 16.7185C21.0821 16.5307 21.254 16.3447 21.425 16.1692C21.4876 16.1057 21.5494 16.0458 21.6111 15.9858L21.776 15.8245C21.8968 15.7054 22.0176 15.5864 22.1375 15.4744C22.2071 15.4101 22.275 15.3484 22.3438 15.2875L22.4822 15.1632C22.6021 15.0556 22.7212 14.9481 22.8393 14.8475C22.9275 14.7717 23.0139 14.7012 23.1012 14.6298L23.1488 14.591C23.2757 14.486 23.4018 14.3829 23.5262 14.285C23.6214 14.2101 23.7148 14.1395 23.8092 14.0681C23.9511 13.9614 24.0719 13.8697 24.191 13.7842C24.2888 13.7137 24.3858 13.6449 24.4819 13.5779C24.5983 13.4968 24.7129 13.4183 24.8267 13.3425C24.9201 13.2799 25.0118 13.219 25.1027 13.1608C25.2129 13.0903 25.3213 13.0215 25.428 12.9563C25.5144 12.9034 25.5999 12.8505 25.6837 12.8011C25.7886 12.7385 25.89 12.6803 25.9897 12.6239L26.2198 12.4943C26.3194 12.4396 26.4129 12.3902 26.5063 12.3408L26.7056 12.2368C26.7999 12.1883 26.8881 12.146 26.9754 12.1037L27.1332 12.027C27.2276 11.9829 27.3123 11.945 27.3951 11.9079L27.5 11.8603L27.5494 11.8392L27.5512 11.8427ZM38.2445 15.2558L38.2049 15.3122C38.1766 15.3528 38.1484 15.3942 38.1167 15.4339C38.0038 15.5732 37.8733 15.7054 37.7446 15.8386C37.7173 15.8677 37.6917 15.8959 37.6661 15.925C37.6467 15.947 37.6273 15.97 37.6044 15.9911C37.4192 16.171 37.2156 16.3482 36.9978 16.5193C36.959 16.551 36.9167 16.5792 36.8744 16.6083L36.7112 16.7247L36.646 16.7732C36.5067 16.6083 36.3674 16.4487 36.2272 16.2918L36.0288 16.0749C35.856 15.8853 35.6832 15.7002 35.5103 15.5221C35.4292 15.4383 35.3481 15.3572 35.267 15.2761C35.103 15.1121 34.9399 14.9542 34.7768 14.8008L34.5511 14.5892C34.3491 14.404 34.1481 14.2268 33.9497 14.0575L33.8571 13.9764C33.627 13.7824 33.4013 13.5999 33.1773 13.4262L32.9798 13.2763C32.822 13.1564 32.666 13.04 32.5125 12.9289L32.2868 12.7685C32.1413 12.6671 31.9994 12.5701 31.8592 12.4766L31.8548 12.474C32.069 12.5392 32.2472 12.5948 32.4289 12.6547L32.494 12.6759C32.695 12.7411 32.8996 12.8117 33.1068 12.884L33.2338 12.9289C33.4454 13.0048 33.6596 13.0832 33.8783 13.1661L33.9365 13.0665L33.9886 13.0868L33.948 13.1935C34.156 13.2737 34.3685 13.3583 34.5828 13.4465L34.6842 13.4879C34.9099 13.5814 35.1383 13.6802 35.3684 13.7824L35.4971 13.8406C35.9829 14.0593 36.4723 14.2956 36.9493 14.5434L37.078 14.6104C37.3179 14.7365 37.5594 14.8669 37.8019 15.0036L37.9174 15.0697C38.0267 15.1323 38.1361 15.1949 38.2454 15.2593L38.2445 15.2558ZM24.2791 12.4731L24.2712 12.4784C24.1328 12.5701 23.9935 12.6653 23.8497 12.7658L23.6196 12.9289C23.468 13.0383 23.3137 13.1538 23.1576 13.2728L22.9557 13.4262C22.7317 13.6008 22.5069 13.7824 22.2777 13.9755L22.178 14.0619C21.9823 14.2295 21.783 14.4049 21.5829 14.5883L21.3554 14.8017C21.1932 14.9551 21.03 15.1121 20.866 15.2761C20.7849 15.3572 20.7038 15.4392 20.6218 15.5229C20.449 15.7002 20.2762 15.8853 20.1034 16.0749L19.9041 16.2918C19.7648 16.4487 19.6255 16.6083 19.4862 16.7732L19.4192 16.7238L19.2552 16.6066C19.2137 16.5783 19.1723 16.5492 19.1335 16.5193C18.9166 16.3482 18.712 16.1701 18.526 15.9894C18.5101 15.9744 18.4969 15.9585 18.4837 15.9426C18.4616 15.9171 18.4396 15.8924 18.4149 15.8677C18.2738 15.724 18.1354 15.5802 18.0146 15.4312C17.9855 15.3951 17.9599 15.3581 17.9344 15.321L17.8876 15.2549C17.9996 15.1896 18.1081 15.127 18.2165 15.0653L18.332 14.9992C18.5736 14.8634 18.8152 14.7329 19.055 14.606L19.152 14.5557C19.6625 14.2912 20.151 14.0549 20.6359 13.8371L20.7655 13.7789C20.9957 13.6766 21.224 13.5779 21.4488 13.4853L21.5132 13.4589C21.7654 13.3557 21.9761 13.271 22.1842 13.1917L22.1613 13.078L22.2151 13.0577L22.2556 13.1644C22.4734 13.0815 22.6868 13.003 22.8975 12.9281L23.028 12.8813C23.2343 12.809 23.4389 12.7394 23.6373 12.6741L23.6126 12.5622L23.6637 12.5454L23.7051 12.6521C23.8912 12.5913 24.0728 12.5348 24.25 12.481L24.2783 12.4722L24.2791 12.4731ZM38.9772 11.3657L38.9878 11.3957C39.0019 11.4336 39.016 11.4706 39.0275 11.5085C39.0389 11.5473 39.0486 11.587 39.0583 11.6267L39.0954 11.7739C39.1051 11.8109 39.1157 11.848 39.1227 11.885C39.1342 11.9423 39.1421 11.9996 39.1492 12.0561L39.1694 12.1892C39.1738 12.2148 39.1783 12.2394 39.1809 12.265C39.1932 12.3902 39.2003 12.5172 39.2003 12.6442C39.2003 12.824 39.1871 13.0092 39.1597 13.1926C39.1553 13.2226 39.1483 13.2508 39.1412 13.279C39.1324 13.3143 39.1245 13.3495 39.1174 13.3848L39.1051 13.4492C39.0866 13.5444 39.0689 13.6405 39.0407 13.7348C39.0284 13.7772 39.0116 13.8186 38.9949 13.86L38.9234 14.0558C38.8979 14.1281 38.8732 14.2013 38.8414 14.2727C38.8256 14.3088 38.8071 14.3441 38.7877 14.3794C38.6475 14.2974 38.5099 14.2171 38.3715 14.1395L38.2613 14.0761C38.0003 13.9297 37.7393 13.7895 37.4801 13.6546L37.3205 13.5717C37.0666 13.4412 36.8135 13.3151 36.5631 13.1952L36.4194 13.1273C36.1628 13.0057 35.9071 12.8884 35.6558 12.7782C35.3693 12.653 35.125 12.5507 34.8843 12.4537L34.7459 12.3973C34.5114 12.3029 34.2812 12.2139 34.0539 12.1292L33.8986 12.071C33.6729 11.9882 33.4516 11.9088 33.2347 11.8347L33.1174 11.7951C32.9075 11.7245 32.7022 11.6566 32.5021 11.5932L32.4359 11.572C32.2234 11.505 32.0188 11.4441 31.8186 11.386L31.6978 11.3507C31.5065 11.296 31.3196 11.244 31.1388 11.1955L31.0313 11.1673C30.9431 11.1444 30.8549 11.1214 30.7694 11.0994C30.8249 11.0923 30.8814 11.0853 30.9387 11.0782L31.0815 11.0606C31.2482 11.0412 31.4219 11.0218 31.6008 11.0051L31.7481 10.9918C31.9359 10.9742 32.1281 10.9583 32.3283 10.9442L32.4289 10.938C32.6149 10.9257 32.8061 10.9151 33.0019 10.9072L33.1369 10.901C33.3484 10.8931 33.5653 10.8878 33.7866 10.8851L33.9559 10.8834C34.1791 10.8816 34.4064 10.8834 34.6375 10.8878L34.7953 10.8913C35.0351 10.8975 35.2776 10.9063 35.5253 10.9195L35.5491 10.8067L35.602 10.8093L35.5959 10.9231C35.8392 10.9372 36.0861 10.9557 36.3365 10.9777L36.489 10.9909C36.743 11.0148 36.9996 11.0439 37.2588 11.0774L37.4316 11.1003C37.6961 11.1364 37.9624 11.1761 38.2313 11.222L38.3609 11.2458C38.5664 11.2819 38.7718 11.3216 38.9781 11.3639L38.9772 11.3657ZM25.3645 11.1012C25.2808 11.1223 25.1952 11.1444 25.1088 11.1673L24.9871 11.199C24.8108 11.2458 24.6274 11.2969 24.4378 11.3507L24.3073 11.3886C24.1098 11.4459 23.9088 11.5067 23.6999 11.572L23.6425 11.5905C23.4256 11.6593 23.2237 11.7263 23.0174 11.7951L22.8957 11.8365C22.6806 11.9106 22.4593 11.989 22.2353 12.0719L22.0766 12.131C21.85 12.2156 21.6199 12.3047 21.3862 12.3982L21.2478 12.4546C21.0071 12.5525 20.7638 12.6539 20.5169 12.7623L20.4728 12.7817C20.225 12.8902 19.9702 13.0074 19.7136 13.1291L19.5699 13.197C19.3195 13.3169 19.0665 13.4421 18.8117 13.5735L18.6856 13.6387C18.3928 13.7913 18.1319 13.9314 17.87 14.0778L17.7624 14.1395C17.6231 14.218 17.4838 14.2982 17.3445 14.3802C17.3251 14.345 17.3066 14.3088 17.2907 14.2727C17.259 14.2013 17.2343 14.1281 17.2087 14.0549L17.1373 13.8609C17.1205 13.8195 17.1038 13.778 17.0914 13.7357C17.0641 13.6422 17.0465 13.5461 17.028 13.4509L17.0147 13.3848C17.0077 13.3495 16.9997 13.3143 16.9909 13.2781C16.9839 13.2499 16.9768 13.2208 16.9724 13.1926C16.946 13.0101 16.9327 12.8249 16.9327 12.6442C16.9327 12.5172 16.9398 12.3902 16.9521 12.2641C16.9548 12.2386 16.9601 12.2112 16.9645 12.1839L16.9848 12.0481C16.9918 11.9943 16.9989 11.9397 17.0103 11.8859C17.0183 11.848 17.028 11.8109 17.0385 11.773L17.0756 11.6293C17.0853 11.5896 17.0941 11.5491 17.1064 11.5094C17.1188 11.4697 17.1338 11.43 17.1479 11.3912L17.1567 11.3666C17.3771 11.3216 17.5808 11.2828 17.7827 11.2466L17.8973 11.2255C18.1733 11.1779 18.4457 11.1373 18.7173 11.1003L18.861 11.0809C19.1308 11.0465 19.3989 11.0156 19.6625 10.9909L19.7225 10.9857C20.3 10.9336 20.8449 10.9028 21.3854 10.8904L21.4039 10.7758L21.4665 10.774L21.4691 10.8878C21.7231 10.8825 21.9717 10.8816 22.2142 10.8834H22.3076C22.5545 10.8878 22.7952 10.8931 23.0289 10.9028C23.5173 10.9231 23.9811 10.9548 24.4405 10.9971L24.4652 10.8851L24.5066 10.8887L24.496 11.0024C24.7024 11.0218 24.9016 11.0439 25.0938 11.0668L25.1203 10.9548L25.1582 10.9592L25.145 11.0721C25.2199 11.0809 25.294 11.0906 25.3663 11.0994L25.3645 11.1012ZM47.1269 13.756L47.1533 13.7904L47.1348 13.7772L47.1269 13.756ZM8.99916 13.7771L8.98065 13.7904L9.00622 13.7569L8.99828 13.778L8.99916 13.7771ZM38.7295 6.83546C40.328 7.62988 41.8401 8.60505 43.2271 9.73717C43.3796 9.8853 43.5524 10.0608 43.7199 10.238C43.898 10.4293 44.0479 10.5977 44.1917 10.7688L44.3036 10.9081C44.413 11.0412 44.5214 11.1752 44.6246 11.3119L44.7621 11.505C44.8653 11.6469 44.9429 11.7554 45.0169 11.8656C45.0487 11.9132 45.0778 11.9608 45.1078 12.0084L45.1968 12.1513C45.255 12.2439 45.3141 12.3364 45.3687 12.4299C45.4022 12.4881 45.434 12.5463 45.4648 12.6045L45.5424 12.7482L45.5539 12.7694L45.5028 12.7394C45.4058 12.6821 45.3097 12.6248 45.2118 12.571C45.0901 12.504 44.9667 12.4405 44.8432 12.3761L44.5937 12.2456C44.502 12.1971 44.4103 12.1486 44.3169 12.1037C44.189 12.0402 44.0585 11.9811 43.928 11.922L43.6723 11.8048C43.5815 11.7624 43.4898 11.7201 43.3981 11.6796C43.2588 11.6196 43.1186 11.5641 42.9784 11.5085L42.7183 11.4045C42.631 11.3683 42.5429 11.3331 42.4547 11.2987C42.2898 11.2369 42.1223 11.1805 41.9556 11.1232L41.7088 11.0377C41.6356 11.0121 41.5624 10.9857 41.4875 10.9619C41.1983 10.8684 40.9055 10.7837 40.6102 10.7017C40.5193 10.6771 40.4285 10.6533 40.3377 10.6303L40.239 10.6048C40.0591 10.558 39.8907 10.5148 39.724 10.4751C39.7046 10.4381 39.6852 10.4002 39.6667 10.3632L39.6112 10.2521C39.5909 10.208 39.5697 10.1648 39.545 10.1216C39.4375 9.93114 39.3158 9.7407 39.1835 9.55642C39.1774 9.5476 39.1589 9.52468 39.1518 9.51586C39.0345 9.35362 38.8996 9.18257 38.7524 9.01505C38.7215 8.97978 38.688 8.94539 38.6545 8.91101L38.6043 8.85987C38.4799 8.72585 38.3733 8.61123 38.2569 8.50013C38.2137 8.45869 38.1661 8.41813 38.1193 8.37757L38.0012 8.27353C37.9033 8.18624 37.8063 8.09895 37.7005 8.01343C37.6458 7.96934 37.5877 7.92614 37.5286 7.88382L37.3919 7.78242C37.2914 7.70659 37.1918 7.63076 37.0851 7.55758C37.0207 7.5135 36.9546 7.47206 36.8876 7.42974L36.735 7.33275L36.6901 7.30365C36.7659 7.28249 36.8417 7.26133 36.9176 7.24105L37.1221 7.18374C37.1803 7.16699 37.2385 7.15023 37.2958 7.13613C37.5012 7.08322 37.704 7.03914 37.906 6.99505L38.0955 6.95185C38.3089 6.90865 38.5196 6.86985 38.7268 6.83723L38.7295 6.83546ZM16.4081 10.4734C16.223 10.5175 16.0396 10.5651 15.8562 10.6127L15.589 10.6806C15.2707 10.767 14.9551 10.8605 14.6438 10.9601C14.5777 10.9812 14.5142 11.0042 14.4498 11.0271L14.2391 11.1003C14.0504 11.1646 13.8626 11.2281 13.6775 11.2978C13.5999 11.3269 13.5232 11.3586 13.4473 11.3895L13.1978 11.49C13.0418 11.5517 12.8866 11.6134 12.7323 11.6796C12.6485 11.7157 12.5665 11.7545 12.4836 11.7924L12.2473 11.9009C12.1018 11.967 11.9555 12.0331 11.8126 12.1037C11.7262 12.146 11.6416 12.191 11.5561 12.2359L11.3251 12.3558C11.1884 12.4264 11.0526 12.4969 10.9177 12.571C10.8287 12.6203 10.7405 12.6724 10.6532 12.7244L10.5791 12.7676L10.5985 12.7323L10.6682 12.6045C10.6999 12.5454 10.7317 12.4872 10.7652 12.429C10.8163 12.3417 10.871 12.2553 10.9257 12.1689L11.02 12.0181C11.0526 11.9661 11.0844 11.9132 11.1187 11.8621C11.1761 11.7757 11.2387 11.6893 11.2995 11.6037L11.4115 11.4459C11.4441 11.3992 11.4767 11.3533 11.5111 11.3075C11.5869 11.207 11.6672 11.1082 11.7474 11.0103L11.8506 10.8816C11.8814 10.8419 11.9123 10.8031 11.9449 10.7643C12.0481 10.6427 12.1565 10.5236 12.265 10.4037L12.4184 10.2327C12.5833 10.0581 12.7543 9.88441 12.9324 9.71424C14.292 8.60682 15.8041 7.63165 17.4027 6.83634C17.6099 6.86985 17.8206 6.90776 18.0331 6.95097L18.2544 7.00211C18.4466 7.04355 18.6388 7.08587 18.8328 7.13524C18.8989 7.152 18.9651 7.17139 19.0312 7.18991L19.2507 7.25163C19.3142 7.26926 19.3768 7.28602 19.4403 7.30365L19.4077 7.32481L19.2516 7.42356C19.1811 7.46765 19.1106 7.51173 19.0435 7.55846C18.9439 7.62636 18.8496 7.69777 18.7552 7.77007L18.6062 7.88117C18.5454 7.92526 18.4854 7.96934 18.429 8.01607C18.3329 8.09278 18.243 8.17302 18.153 8.25413L18.0172 8.37316C17.9679 8.41549 17.9185 8.45781 17.8726 8.50189C17.7615 8.6077 17.661 8.71615 17.5596 8.8246L17.4803 8.90836C17.445 8.94451 17.4097 8.97978 17.378 9.01681C17.2334 9.18169 17.1011 9.34922 16.9768 9.52027L16.9477 9.55818C16.8163 9.74158 16.6947 9.93203 16.5862 10.1234C16.5615 10.1674 16.5404 10.2115 16.5201 10.2556L16.4628 10.3685C16.4443 10.4046 16.4257 10.4399 16.4072 10.476L16.4081 10.4734ZM35.3746 7.73481C35.5148 7.80711 35.6514 7.88293 35.7863 7.95964L35.8357 7.98609C36.0649 8.11835 36.2677 8.24532 36.4617 8.37757C36.4961 8.40138 36.5287 8.42607 36.5622 8.45076L36.7148 8.56185C36.817 8.63503 36.9202 8.70821 37.0163 8.78492C37.056 8.81666 37.093 8.84929 37.1292 8.88191L37.2826 9.01417C37.3602 9.0803 37.4386 9.14642 37.5109 9.21431C37.5515 9.25223 37.5894 9.29191 37.6264 9.33158L37.7534 9.46208C37.8187 9.5282 37.8848 9.59345 37.9447 9.66134C37.9818 9.70278 38.0153 9.74599 38.0497 9.78831L38.159 9.92321C38.2137 9.98934 38.2683 10.0546 38.3168 10.1225C38.3362 10.1498 38.3547 10.1771 38.3733 10.2054C38.2613 10.186 38.1493 10.1683 38.0373 10.1507L37.9342 10.1348C37.4986 10.0687 37.0666 10.0149 36.6486 9.97435C36.2184 9.93291 35.8092 9.90469 35.4081 9.8853L35.3031 9.88089C34.917 9.86325 34.5369 9.85532 34.1684 9.85444H34.1217C33.7681 9.85444 33.4304 9.86149 33.105 9.87383L30.5181 10.0969L31.0753 9.76979C31.2023 9.69749 31.3346 9.62255 31.4686 9.54848L31.5929 9.47883C31.7737 9.38008 31.9579 9.28044 32.1475 9.18081L32.2762 9.11468C32.4261 9.03709 32.576 8.96038 32.7303 8.88367L32.9366 8.78316C33.0698 8.71791 33.2056 8.65267 33.3431 8.5883L33.5521 8.49131C33.7134 8.41725 33.8536 8.35553 33.9947 8.29293L34.2248 8.19241C34.38 8.12629 34.5387 8.06192 34.6974 7.99756L34.8905 7.91908C35.0501 7.85648 35.2114 7.79476 35.3737 7.73569L35.3746 7.73481ZM21.9664 9.85267C21.8059 9.85267 21.6428 9.85444 21.4779 9.85708L21.381 9.85973C21.1217 9.8659 20.8555 9.87472 20.5839 9.8897C20.2885 9.90558 20.0117 9.92585 19.7313 9.95054L19.6008 9.962C19.3292 9.98669 19.0532 10.0167 18.7746 10.0528L18.6353 10.0713C18.3479 10.1092 18.0587 10.1516 17.7651 10.2018H17.758C17.7765 10.1754 17.795 10.148 17.8144 10.1207C17.8594 10.059 17.9088 9.99904 17.9582 9.93908L18.0763 9.79272C18.1125 9.74775 18.1477 9.70278 18.1865 9.65958C18.2421 9.59698 18.3029 9.53614 18.3637 9.4753L18.5004 9.33599C18.5392 9.29455 18.5789 9.25399 18.6212 9.21343C18.6917 9.1473 18.7676 9.08294 18.8434 9.01858L18.9977 8.88632C19.0365 8.85193 19.0744 8.81843 19.1158 8.7858C19.2225 8.70028 19.3363 8.61916 19.45 8.53893L19.5761 8.44723C19.6061 8.4243 19.6361 8.40138 19.6687 8.38022C19.8644 8.24708 20.0672 8.11923 20.2788 7.99756C20.4411 7.90409 20.598 7.81857 20.7567 7.73657C20.9189 7.79653 21.0803 7.85736 21.2399 7.91997L21.4347 7.99844C21.5917 8.06192 21.7495 8.1254 21.9029 8.19153L22.1419 8.29469C22.2803 8.35553 22.4178 8.41637 22.5528 8.47809L22.789 8.58742C22.9248 8.6509 23.058 8.71439 23.1893 8.77875L23.4036 8.88367C23.5535 8.95862 23.6999 9.03356 23.8445 9.10763L23.9864 9.17993C24.1733 9.2778 24.3567 9.37655 24.5339 9.47354L24.6768 9.55377C24.8046 9.62519 24.9325 9.69661 25.055 9.76715L25.6114 10.0943C25.5021 10.0801 25.3963 10.066 25.2887 10.0528L25.1891 10.0414C25.0039 10.0193 24.8109 9.99815 24.6115 9.97876L24.5551 9.97347C24.3003 9.94966 24.0852 9.93203 23.8621 9.91616C23.6126 9.8994 23.3842 9.88706 23.1514 9.87736L23.0659 9.87383C22.834 9.86502 22.5951 9.85796 22.3526 9.85532L22.2265 9.85355C22.1402 9.85267 22.0537 9.85267 21.9664 9.85267ZM25.3504 6.31349C25.3725 6.35229 25.3945 6.39196 25.4174 6.43164L25.4791 6.5445C25.5347 6.64413 25.5885 6.74377 25.6414 6.8434L26.5372 8.68793L26.9851 9.73188L26.6051 9.49205C26.4808 9.41534 26.3503 9.33511 26.2163 9.25487L26.151 9.2152C25.9923 9.11997 25.8265 9.02298 25.6546 8.92335L25.5065 8.83871C25.3795 8.76641 25.2517 8.69411 25.1185 8.62004L24.9148 8.50895C24.7932 8.44282 24.6706 8.37669 24.5445 8.30968L24.3153 8.18977C24.1883 8.12452 24.0622 8.06016 23.9326 7.99579L23.6866 7.87323C23.5544 7.80799 23.4177 7.74362 23.2802 7.67838L23.0368 7.56375C22.8799 7.49145 22.7194 7.42092 22.558 7.3495L22.3658 7.26486C22.2732 7.22518 22.1798 7.1855 22.0872 7.14671C22.2829 7.07352 22.4857 7.00916 22.6885 6.94479L22.9724 6.85133C23.05 6.82488 23.1267 6.79755 23.207 6.77462C23.5632 6.67235 23.93 6.58858 24.2095 6.52686L24.3232 6.49865C24.3523 6.49071 24.3823 6.48278 24.4123 6.47661C24.7138 6.41489 25.0268 6.35934 25.3486 6.31173L25.3504 6.31349ZM34.0458 7.14847C33.9524 7.18727 33.8598 7.22606 33.7681 7.26574L33.5724 7.35214C33.4128 7.4218 33.2523 7.49322 33.0945 7.56552L32.8511 7.67926C32.7136 7.74362 32.5778 7.80887 32.4446 7.87412L32.1986 7.99667C32.0699 8.06192 31.943 8.1254 31.8195 8.18977L31.5894 8.30968C31.4633 8.37669 31.3407 8.44282 31.2191 8.50895L31.0154 8.62004C30.8831 8.69322 30.7553 8.76552 30.6292 8.83782L30.4793 8.92335C30.3083 9.0221 30.1416 9.11997 29.9829 9.2152L29.9282 9.2487C29.7899 9.33246 29.6567 9.41358 29.5297 9.49293L29.1506 9.73188L30.2765 7.26309L30.4934 6.84604C30.5481 6.742 30.6045 6.63884 30.6618 6.53656L30.7183 6.43252C30.7403 6.39284 30.7623 6.35317 30.7853 6.31349C31.1071 6.3611 31.421 6.41665 31.7216 6.47925C31.7499 6.48542 31.7781 6.49248 31.8063 6.50041C31.8442 6.51011 31.8821 6.51981 31.92 6.52863C32.3353 6.62033 32.6466 6.69703 32.9287 6.77815C33.0072 6.80108 33.083 6.82665 33.1579 6.8531L33.4322 6.94303C33.6402 7.00916 33.8483 7.07441 34.0476 7.14935L34.0458 7.14847ZM29.6752 6.18653C29.6435 6.24472 29.6135 6.30027 29.5844 6.35581L29.0686 7.37595C29.0024 7.51438 28.9372 7.65104 28.8746 7.78683L28.8526 7.83444C28.7952 7.95788 28.7407 8.07867 28.6859 8.19947L28.5819 8.434V6.12216C28.812 6.12833 29.0368 6.13803 29.2537 6.15214L29.4292 6.16889C29.5112 6.17506 29.5932 6.18123 29.6743 6.18829L29.6752 6.18653ZM27.5512 6.12128V8.43312L27.4454 8.19594C27.3933 8.07955 27.3378 7.95964 27.2822 7.83797L27.2584 7.78683C27.1958 7.65104 27.1306 7.51438 27.0645 7.37683L26.5487 6.35581C26.5187 6.29938 26.4878 6.24295 26.4578 6.18652C26.5381 6.18035 26.6174 6.17418 26.6977 6.16801H26.6994L26.8793 6.15037C27.0953 6.13627 27.3202 6.12657 27.5503 6.1204L27.5512 6.12128ZM37.1353 6.11599C37.0824 6.12833 37.0295 6.14068 36.9766 6.15478C36.7712 6.20769 36.5622 6.26852 36.3533 6.33024L36.1187 6.39725C35.8939 6.46603 35.6682 6.54009 35.4416 6.61768C35.1347 6.47308 34.812 6.33553 34.4814 6.20945L34.4276 6.19093C34.0388 6.04369 33.6439 5.91143 33.2549 5.79857C33.1668 5.773 33.0759 5.75096 32.9851 5.7298L32.7144 5.66191C32.4667 5.59666 32.218 5.53142 31.9623 5.47763C31.8504 5.45471 31.7366 5.43619 31.6229 5.41767L31.3619 5.37359L31.4157 5.29512L31.5338 5.12054C31.6238 4.99269 31.7128 4.87278 31.8001 4.75992L31.8715 4.67351L31.8936 4.64706C33.6949 4.93538 35.4513 5.42826 37.1353 6.11599ZM24.7711 5.37359L24.5057 5.41856C24.3938 5.43619 24.2818 5.45471 24.1716 5.47763C23.9079 5.53318 23.6522 5.60019 23.3965 5.6672L23.14 5.73156C23.0518 5.75272 22.9636 5.773 22.879 5.79769C22.476 5.91496 22.074 6.04986 21.6843 6.19799C21.3263 6.33377 21.0001 6.4722 20.6915 6.61768C20.4649 6.53921 20.2391 6.46603 20.0143 6.39725C19.9649 6.38138 19.9147 6.36816 19.8644 6.35405L19.7727 6.32848C19.5673 6.26764 19.361 6.20769 19.1573 6.15478C19.1035 6.14068 19.0506 6.12833 18.9977 6.11599C20.6818 5.42825 22.439 4.93538 24.2403 4.64706L24.273 4.68762L24.3091 4.73082C24.4193 4.87101 24.5084 4.99093 24.5983 5.11877L24.6953 5.26073C24.7235 5.30217 24.7491 5.3392 24.772 5.37271L24.7711 5.37359ZM27.5512 5.09144C27.3528 5.09761 27.1544 5.10731 26.956 5.11789L26.8026 5.12318C26.4966 5.14258 26.1916 5.16991 25.89 5.20342C25.8451 5.13112 25.8001 5.06058 25.756 4.99181L25.7287 4.95037C25.6378 4.81106 25.5488 4.67704 25.4597 4.55095L25.4139 4.48835C25.89 4.43545 26.3617 4.39665 26.8237 4.37285H26.8379C27.0742 4.3605 27.3131 4.35169 27.5512 4.3464V5.09144ZM30.72 4.48835L30.6742 4.55184C30.5886 4.67351 30.5031 4.80224 30.4167 4.93362L30.377 4.99269C30.333 5.06146 30.288 5.132 30.2439 5.20342C29.9424 5.16991 29.6364 5.14258 29.3322 5.12318L29.1788 5.11789C28.9804 5.10643 28.7811 5.09673 28.5819 5.09056V4.3464C28.82 4.35169 29.0589 4.3605 29.2952 4.37197H29.3093C29.7722 4.39665 30.2439 4.43457 30.7191 4.48747L30.72 4.48835Z" fill="#2A3D4C"/>
</g>
</g>
</g>
<defs>
<clipPath id="clip0_0_21">
<rect width="57" height="56" fill="white" transform="translate(0 0.339966)"/>
</clipPath>
<clipPath id="clip1_0_21">
<rect width="57" height="56" fill="white" transform="translate(0 0.339966)"/>
</clipPath>
<clipPath id="clip2_0_21">
<rect width="57" height="56" fill="white" transform="translate(0 0.339966)"/>
</clipPath>
</defs>
</svg>
